<svg width="24" height="24" viewBox="0 0 24 24" fill="none" xmlns="http://www.w3.org/2000/svg">
<path fill-rule="evenodd" clip-rule="evenodd" d="M12 0C5.37258 0 0 5.37258 0 12C0 18.6274 5.37258 24 12 24C18.6274 24 24 18.6274 24 12C24 5.37258 18.6274 0 12 0ZM13.852 13.9382C14.2416 13.5512 14.731 13.5512 15.1231 13.9382C15.6 14.4127 16.077 14.8871 16.5514 15.3641C16.9484 15.7636 16.9459 16.253 16.5464 16.6576C16.454 16.7508 16.3595 16.8426 16.265 16.9345L16.2649 16.9346C16.0837 17.1107 15.9023 17.287 15.7349 17.4741C15.3628 17.8911 14.8983 18.026 14.364 17.996C13.5874 17.9536 12.8732 17.6964 12.184 17.3618C10.6533 16.6176 9.3448 15.5863 8.24858 14.2828C7.43703 13.319 6.76781 12.2677 6.32832 11.0841C6.11357 10.5122 5.96125 9.92543 6.0087 9.30365C6.03866 8.9216 6.181 8.59448 6.46317 8.32729C6.64591 8.15354 6.82236 7.97529 6.999 7.79686L6.99901 7.79684L6.99903 7.79682C7.11685 7.67781 7.23474 7.55872 7.35463 7.44083C7.74417 7.05627 8.2336 7.05627 8.62564 7.43833C8.78712 7.59648 8.94638 7.75685 9.10564 7.91721L9.10584 7.91742C9.1854 7.99754 9.26497 8.07765 9.3448 8.15749C9.46092 8.27485 9.57703 8.39097 9.69315 8.50708C9.80926 8.6232 9.92538 8.73931 10.0415 8.85667C10.451 9.26869 10.451 9.74813 10.044 10.1577L9.91836 10.2845C9.66856 10.5367 9.41953 10.7882 9.16501 11.0341C9.0876 11.1115 9.08011 11.174 9.12007 11.2689C9.31734 11.7383 9.59951 12.1553 9.91664 12.5449C10.5559 13.329 11.2776 14.0256 12.139 14.5675C12.2506 14.6369 12.3694 14.6953 12.4884 14.7538L12.4885 14.7538L12.4885 14.7538C12.5666 14.7922 12.6447 14.8306 12.7209 14.8722C12.8183 14.9271 12.8857 14.9096 12.9656 14.8272C13.2577 14.5276 13.5549 14.2329 13.852 13.9382ZM14.6468 11.9481L15.5682 11.7908C15.4234 10.9442 15.0238 10.1776 14.4171 9.56835C13.7753 8.9266 12.9637 8.52207 12.0698 8.39722L11.9399 9.32364C12.6316 9.42102 13.2609 9.73316 13.7578 10.2301C14.2273 10.6995 14.5344 11.2938 14.6468 11.9481ZM12.1914 6C13.6771 6.20726 15.0231 6.87897 16.0868 7.94273C17.0957 8.95405 17.7574 10.2276 17.9996 11.6309L17.0782 11.7882C16.8709 10.5772 16.2991 9.47594 15.4276 8.60446C14.5087 7.68803 13.345 7.10621 12.0615 6.92642L12.1914 6Z" fill="currentColor"/>
</svg>
