<svg width="16" height="16" viewBox="0 0 16 16" fill="none" xmlns="http://www.w3.org/2000/svg">
<path d="M7.99844 10V0.950684M7.99844 0.950684L10.0984 4.45068M7.99844 0.950684L5.89844 4.45068" stroke="currentColor" stroke-linecap="round" stroke-linejoin="round"/>
<path d="M5.2 15.0495H10.8C12.7799 15.0495 13.7698 15.0495 14.3849 14.4344C15 13.8193 15 12.8293 15 10.8495V10.1495C15 8.16958 15 7.17964 14.3849 6.56455C13.847 6.02668 13.0225 5.95916 11.5 5.95068M4.5 5.95068C2.97748 5.95916 2.15294 6.02668 1.61508 6.56454C1 7.17964 1 8.16958 1 10.1495V10.8495C1 12.8293 1 13.8193 1.61508 14.4344C1.82494 14.6442 2.07843 14.7825 2.4 14.8736" stroke="currentColor" stroke-linecap="round"/>
</svg>
