<svg width="17" height="17" viewBox="0 0 17 17" fill="none" xmlns="http://www.w3.org/2000/svg">
<path d="M8.10888 0.509253C3.84886 0.710451 0.487114 4.22954 0.500037 8.45991C0.503972 9.74837 0.817564 10.9645 1.37076 12.0391L0.521409 16.1286C0.475464 16.3498 0.676604 16.5435 0.898151 16.4915L4.93805 15.5421C5.97596 16.0549 7.14175 16.3511 8.37556 16.3698C12.7297 16.4357 16.3603 13.0064 16.496 8.68904C16.6415 4.06114 12.7908 0.28808 8.10888 0.509253ZM12.9293 12.8289C11.7462 14.0025 10.1732 14.6488 8.50001 14.6488C7.52031 14.6488 6.58235 14.4307 5.71209 14.0007L5.14949 13.7227L2.67261 14.3048L3.19398 11.7944L2.91681 11.256C2.46503 10.3784 2.23596 9.42936 2.23596 8.43534C2.23596 6.77567 2.88753 5.21537 4.07064 4.04178C5.24319 2.87871 6.84189 2.22189 8.50012 2.22189C10.1733 2.22192 11.7463 2.86822 12.9294 4.04174C14.1125 5.21529 14.7641 6.77559 14.7641 8.43523C14.7641 10.0801 14.1019 11.6659 12.9293 12.8289Z" fill="currentColor"/>
<path d="M12.566 10.1947L10.884 9.75535C10.6629 9.6976 10.4248 9.75467 10.2636 9.90403L9.85233 10.2853C9.67889 10.446 9.41572 10.4977 9.18617 10.4132C8.3905 10.1203 6.71675 8.76639 6.28932 8.08919C6.166 7.89384 6.18639 7.64962 6.3378 7.47137L6.69691 7.04872C6.8376 6.88312 6.86729 6.66073 6.77425 6.4693L6.06659 5.01323C5.89709 4.66448 5.40722 4.56295 5.08718 4.80919C4.61775 5.1704 4.06075 5.7193 3.99304 6.3274C3.87366 7.39953 4.37907 8.75104 6.29028 10.3739C8.49824 12.2487 10.2664 12.4963 11.4176 12.2426C12.0705 12.0988 12.5924 11.5219 12.9217 11.0496C13.1462 10.7276 12.9689 10.3 12.566 10.1947Z" fill="currentColor"/>
</svg>
