<svg width="0" height="0" class="hidden">
  <symbol fill="none" xmlns="http://www.w3.org/2000/svg" viewBox="0 0 6 10" id="ic_arr_hor">
    <path d="M0 0.519811L4.86694 5.00001L0 9.48019L0.568374 10L6 5.00001L0.568374 0L0 0.519811Z" fill="currentColor"></path>
  </symbol>
  <symbol fill="none" xmlns="http://www.w3.org/2000/svg" viewBox="0 0 29 14" id="ic_arrow_hor">
    <path d="M0.907249 6.90698H28.5352" stroke="currentColor"></path>
    <path d="M6.9082 13.0959L1.30556 6.90696L6.9082 0.718064L6.25391 0L0.00122643 6.90696L6.25391 13.814L6.9082 13.0959Z" fill="currentColor"></path>
  </symbol>
  <symbol fill="none" xmlns="http://www.w3.org/2000/svg" viewBox="0 0 12 10" id="ic_arrow_hor2">
    <path d="M10.5 5H1.88806M5.20034 1L1.69403 4.5286C1.43532 4.78894 1.43532 5.21106 1.69403 5.4714L5.20034 9" stroke="currentColor" stroke-width="1.2" stroke-linecap="round"></path>
  </symbol>
  <symbol fill="none" xmlns="http://www.w3.org/2000/svg" viewBox="0 0 9 9" id="ic_check">
    <path d="M3.44626 7.86204C3.36035 7.94845 3.24314 7.99667 3.12138 7.99667C2.99963 7.99667 2.88242 7.94845 2.79651 7.86204L0.201944 5.26705C-0.0673148 4.99779 -0.0673148 4.56117 0.201944 4.29242L0.526822 3.96746C0.796165 3.6982 1.23228 3.6982 1.50154 3.96746L3.12138 5.58739L7.49844 1.21025C7.76779 0.940986 8.20432 0.940986 8.47316 1.21025L8.79804 1.53521C9.0673 1.80447 9.0673 2.241 8.79804 2.50984L3.44626 7.86204Z" fill="currentColor"></path>
  </symbol>
  <symbol fill="none" xmlns="http://www.w3.org/2000/svg" viewBox="0 0 30 30" id="ic_close">
    <path d="M12.5379 11.2121C12.1718 10.846 11.5782 10.846 11.2121 11.2121C10.846 11.5782 10.846 12.1718 11.2121 12.5379L13.6742 15L11.2121 17.4621C10.846 17.8281 10.846 18.4218 11.2121 18.7879C11.5782 19.154 12.1718 19.154 12.5379 18.7879L15 16.3259L17.462 18.7879C17.8282 19.154 18.4218 19.154 18.7879 18.7879C19.154 18.4218 19.154 17.8281 18.7879 17.462L16.3258 15L18.7879 12.5379C19.154 12.1718 19.154 11.5782 18.7879 11.2121C18.4218 10.846 17.8282 10.846 17.462 11.2121L15 13.6741L12.5379 11.2121Z" fill="currentColor"></path>
    <path fill-rule="evenodd" clip-rule="evenodd" d="M15 1.5625C7.57867 1.5625 1.5625 7.57867 1.5625 15C1.5625 22.4214 7.57867 28.4375 15 28.4375C22.4214 28.4375 28.4375 22.4214 28.4375 15C28.4375 7.57867 22.4214 1.5625 15 1.5625ZM3.4375 15C3.4375 8.61421 8.61421 3.4375 15 3.4375C21.3857 3.4375 26.5625 8.61421 26.5625 15C26.5625 21.3857 21.3857 26.5625 15 26.5625C8.61421 26.5625 3.4375 21.3857 3.4375 15Z" fill="currentColor"></path>
  </symbol>
  <symbol fill="none" xmlns="http://www.w3.org/2000/svg" viewBox="0 0 20 20" id="ic_download">
    <path d="M10.6 1C10.6 0.668629 10.3314 0.4 10 0.4C9.66863 0.4 9.4 0.668629 9.4 1L10.6 1ZM9.4 12C9.4 12.3314 9.66863 12.6 10 12.6C10.3314 12.6 10.6 12.3314 10.6 12H9.4ZM14.4243 10.4243C14.6586 10.1899 14.6586 9.81005 14.4243 9.57574C14.1899 9.34142 13.8101 9.34142 13.5757 9.57574L14.4243 10.4243ZM10.7071 13.2929L10.2828 12.8686L10.7071 13.2929ZM9.29289 13.2929L9.71716 12.8686L9.29289 13.2929ZM6.42426 9.57574C6.18995 9.34142 5.81005 9.34142 5.57574 9.57574C5.34142 9.81005 5.34142 10.1899 5.57574 10.4243L6.42426 9.57574ZM1.6 14C1.6 13.6686 1.33137 13.4 1 13.4C0.668629 13.4 0.4 13.6686 0.4 14H1.6ZM19.6 14C19.6 13.6686 19.3314 13.4 19 13.4C18.6686 13.4 18.4 13.6686 18.4 14H19.6ZM17.362 18.673L17.0896 18.1384V18.1384L17.362 18.673ZM18.673 17.362L19.2076 17.6344L18.673 17.362ZM1.32698 17.362L0.792377 17.6344L1.32698 17.362ZM2.63803 18.673L2.36563 19.2076H2.36563L2.63803 18.673ZM9.4 1L9.4 12H10.6L10.6 1L9.4 1ZM13.5757 9.57574L10.2828 12.8686L11.1314 13.7172L14.4243 10.4243L13.5757 9.57574ZM9.71716 12.8686L6.42426 9.57574L5.57574 10.4243L8.86863 13.7172L9.71716 12.8686ZM10.2828 12.8686C10.1266 13.0248 9.87337 13.0248 9.71716 12.8686L8.86863 13.7172C9.49347 14.342 10.5065 14.342 11.1314 13.7172L10.2828 12.8686ZM0.4 14V14.2H1.6V14H0.4ZM5.8 19.6H14.2V18.4H5.8V19.6ZM19.6 14.2V14H18.4V14.2H19.6ZM14.2 19.6C15.0302 19.6 15.6889 19.6005 16.2193 19.5571C16.7566 19.5132 17.2148 19.4214 17.6344 19.2076L17.0896 18.1384C16.8674 18.2516 16.5847 18.3233 16.1215 18.3611C15.6514 18.3995 15.05 18.4 14.2 18.4V19.6ZM18.4 14.2C18.4 15.05 18.3995 15.6514 18.3611 16.1215C18.3233 16.5847 18.2516 16.8674 18.1384 17.0896L19.2076 17.6344C19.4214 17.2148 19.5132 16.7566 19.5571 16.2193C19.6005 15.6889 19.6 15.0302 19.6 14.2H18.4ZM17.6344 19.2076C18.3118 18.8625 18.8625 18.3118 19.2076 17.6344L18.1384 17.0896C17.9083 17.5412 17.5412 17.9083 17.0896 18.1384L17.6344 19.2076ZM0.4 14.2C0.4 15.0302 0.399533 15.6889 0.442865 16.2193C0.486769 16.7566 0.578606 17.2148 0.792376 17.6344L1.86158 17.0896C1.74837 16.8674 1.67672 16.5847 1.63888 16.1215C1.60047 15.6514 1.6 15.05 1.6 14.2H0.4ZM5.8 18.4C4.95002 18.4 4.34862 18.3995 3.87847 18.3611C3.41531 18.3233 3.13261 18.2516 2.91042 18.1384L2.36563 19.2076C2.78518 19.4214 3.24339 19.5132 3.78075 19.5571C4.3111 19.6005 4.96982 19.6 5.8 19.6V18.4ZM0.792377 17.6344C1.13752 18.3118 1.68825 18.8625 2.36563 19.2076L2.91042 18.1384C2.45883 17.9083 2.09168 17.5412 1.86158 17.0896L0.792377 17.6344Z" fill="currentColor"></path>
  </symbol>
  <symbol fill="none" xmlns="http://www.w3.org/2000/svg" viewBox="0 0 16 14" id="ic_favorite">
    <path fill-rule="evenodd" clip-rule="evenodd" d="M7.99521 2.43711C6.59566 0.86435 4.26182 0.441282 2.50829 1.88146C0.754751 3.32164 0.507877 5.72955 1.88494 7.43286C3.02987 8.84904 6.49484 11.8359 7.63047 12.8026C7.75752 12.9108 7.82105 12.9648 7.89515 12.9861C7.95982 13.0046 8.03059 13.0046 8.09526 12.9861C8.16936 12.9648 8.23289 12.9108 8.35994 12.8026C9.49557 11.8359 12.9605 8.84904 14.1055 7.43286C15.4825 5.72955 15.2658 3.30649 13.4821 1.88146C11.6984 0.456431 9.39475 0.86435 7.99521 2.43711Z" stroke="currentColor" stroke-width="1.2" stroke-linecap="round" stroke-linejoin="round"></path>
  </symbol>
  <symbol fill="none" xmlns="http://www.w3.org/2000/svg" viewBox="0 0 16 14" id="ic_favorite_a">
    <path fill-rule="evenodd" clip-rule="evenodd" d="M7.99521 2.43711C6.59566 0.86435 4.26182 0.441282 2.50829 1.88146C0.754751 3.32164 0.507877 5.72955 1.88494 7.43286C3.02987 8.84904 6.49484 11.8359 7.63047 12.8026C7.75752 12.9108 7.82105 12.9648 7.89515 12.9861C7.95982 13.0046 8.03059 13.0046 8.09526 12.9861C8.16936 12.9648 8.23289 12.9108 8.35994 12.8026C9.49557 11.8359 12.9605 8.84904 14.1055 7.43286C15.4825 5.72955 15.2658 3.30649 13.4821 1.88146C11.6984 0.456431 9.39475 0.86435 7.99521 2.43711Z" fill="currentColor" stroke="currentColor" stroke-width="1.2" stroke-linecap="round" stroke-linejoin="round"></path>
  </symbol>
  <symbol fill="none" xmlns="http://www.w3.org/2000/svg" viewBox="0 0 12 8" id="ic_filter">
    <path d="M1 0.666748L11 0.666748" stroke="currentColor" stroke-width="1.1" stroke-linecap="round"></path>
    <path d="M2.66732 4L9.33398 4" stroke="currentColor" stroke-width="1.1" stroke-linecap="round"></path>
    <path d="M4.33268 7.3335L7.66602 7.3335" stroke="currentColor" stroke-width="1.1" stroke-linecap="round"></path>
  </symbol>
  <symbol fill="none" xmlns="http://www.w3.org/2000/svg" viewBox="0 0 16 18" id="ic_location">
    <path fill-rule="evenodd" clip-rule="evenodd" d="M7.57895 0C3.39321 0 0 3.15244 0 7.04118C0 13.0765 7.57895 18 7.57895 18C7.57895 18 15.1579 13.0765 15.1579 7.04118C15.1579 3.15244 11.7647 0 7.57895 0ZM7.51974 11.25C9.3837 11.25 10.8947 9.73896 10.8947 7.875C10.8947 6.01104 9.3837 4.5 7.51974 4.5C5.65578 4.5 4.14474 6.01104 4.14474 7.875C4.14474 9.73896 5.65578 11.25 7.51974 11.25Z" fill="currentColor"></path>
  </symbol>
  <symbol fill="none" xmlns="http://www.w3.org/2000/svg" viewBox="0 0 16 11" id="ic_menu">
    <line y1="0.5" x2="16" y2="0.5" stroke="currentColor"></line>
    <line y1="5.5" x2="16" y2="5.5" stroke="currentColor"></line>
    <line y1="10.5" x2="16" y2="10.5" stroke="currentColor"></line>
  </symbol>
  <symbol fill="none" xmlns="http://www.w3.org/2000/svg" viewBox="0 0 16 16" id="ic_phone">
    <path d="M12.1641 10.5843C11.6414 10.0683 10.9888 10.0683 10.4694 10.5843C10.0732 10.9772 9.67699 11.3701 9.28744 11.7696C9.1809 11.8795 9.091 11.9028 8.96115 11.8295C8.70479 11.6897 8.43177 11.5765 8.18539 11.4233C7.03673 10.7009 6.07452 9.77194 5.22218 8.7265C4.79934 8.2071 4.42312 7.65108 4.16009 7.02515C4.10682 6.89863 4.11681 6.81539 4.22002 6.71218C4.61622 6.32929 5.00244 5.93642 5.39199 5.54354C5.93469 4.99751 5.93469 4.35826 5.38866 3.8089C5.07902 3.49593 4.76938 3.18962 4.45974 2.87665C4.14011 2.55703 3.82381 2.23407 3.50086 1.91777C2.97813 1.40837 2.32556 1.40837 1.80617 1.9211C1.40663 2.31398 1.02375 2.71684 0.617555 3.10306C0.241327 3.45931 0.0515486 3.89546 0.0115952 4.40487C-0.0516643 5.2339 0.151432 6.01632 0.437765 6.77877C1.02375 8.35693 1.91604 9.75863 2.99811 11.0438C4.45974 12.7818 6.20437 14.1568 8.24532 15.149C9.16425 15.5951 10.1165 15.9381 11.1519 15.9947C11.8644 16.0346 12.4837 15.8548 12.9798 15.2988C13.3194 14.9193 13.7023 14.573 14.0619 14.2101C14.5946 13.6707 14.5979 13.0182 14.0685 12.4854C13.4359 11.8495 12.8 11.2169 12.1641 10.5843Z" fill="currentColor"></path>
    <path d="M11.531 7.93077L12.7596 7.72101C12.5665 6.59233 12.0337 5.57019 11.2247 4.7578C10.369 3.90213 9.28695 3.36276 8.09501 3.19629L7.92188 4.43151C8.84413 4.56136 9.68315 4.97754 10.3457 5.6401C10.9716 6.26604 11.3812 7.05845 11.531 7.93077Z" fill="currentColor"></path>
    <path d="M13.4491 2.59031C12.0308 1.17197 10.2362 0.276344 8.25516 0L8.08203 1.23523C9.79337 1.47495 11.3449 2.25071 12.5701 3.47261C13.7321 4.63459 14.4946 6.10288 14.7709 7.71766L15.9995 7.50791C15.6765 5.63676 14.7942 3.93874 13.4491 2.59031Z" fill="currentColor"></path>
  </symbol>
  <symbol fill="none" xmlns="http://www.w3.org/2000/svg" viewBox="0 0 24 24" id="ic_phone2">
    <path fill-rule="evenodd" clip-rule="evenodd" d="M12 0C5.37258 0 0 5.37258 0 12C0 18.6274 5.37258 24 12 24C18.6274 24 24 18.6274 24 12C24 5.37258 18.6274 0 12 0ZM13.852 13.9382C14.2416 13.5512 14.731 13.5512 15.1231 13.9382C15.6 14.4127 16.077 14.8871 16.5514 15.3641C16.9484 15.7636 16.9459 16.253 16.5464 16.6576C16.454 16.7508 16.3595 16.8426 16.265 16.9345L16.2649 16.9346C16.0837 17.1107 15.9023 17.287 15.7349 17.4741C15.3628 17.8911 14.8983 18.026 14.364 17.996C13.5874 17.9536 12.8732 17.6964 12.184 17.3618C10.6533 16.6176 9.3448 15.5863 8.24858 14.2828C7.43703 13.319 6.76781 12.2677 6.32832 11.0841C6.11357 10.5122 5.96125 9.92543 6.0087 9.30365C6.03866 8.9216 6.181 8.59448 6.46317 8.32729C6.64591 8.15354 6.82236 7.97529 6.999 7.79686L6.99901 7.79684L6.99903 7.79682C7.11685 7.67781 7.23474 7.55872 7.35463 7.44083C7.74417 7.05627 8.2336 7.05627 8.62564 7.43833C8.78712 7.59648 8.94638 7.75685 9.10564 7.91721L9.10584 7.91742C9.1854 7.99754 9.26497 8.07765 9.3448 8.15749C9.46092 8.27485 9.57703 8.39097 9.69315 8.50708C9.80926 8.6232 9.92538 8.73931 10.0415 8.85667C10.451 9.26869 10.451 9.74813 10.044 10.1577L9.91836 10.2845C9.66856 10.5367 9.41953 10.7882 9.16501 11.0341C9.0876 11.1115 9.08011 11.174 9.12007 11.2689C9.31734 11.7383 9.59951 12.1553 9.91664 12.5449C10.5559 13.329 11.2776 14.0256 12.139 14.5675C12.2506 14.6369 12.3694 14.6953 12.4884 14.7538L12.4885 14.7538L12.4885 14.7538C12.5666 14.7922 12.6447 14.8306 12.7209 14.8722C12.8183 14.9271 12.8857 14.9096 12.9656 14.8272C13.2577 14.5276 13.5549 14.2329 13.852 13.9382ZM14.6468 11.9481L15.5682 11.7908C15.4234 10.9442 15.0238 10.1776 14.4171 9.56835C13.7753 8.9266 12.9637 8.52207 12.0698 8.39722L11.9399 9.32364C12.6316 9.42102 13.2609 9.73316 13.7578 10.2301C14.2273 10.6995 14.5344 11.2938 14.6468 11.9481ZM12.1914 6C13.6771 6.20726 15.0231 6.87897 16.0868 7.94273C17.0957 8.95405 17.7574 10.2276 17.9996 11.6309L17.0782 11.7882C16.8709 10.5772 16.2991 9.47594 15.4276 8.60446C14.5087 7.68803 13.345 7.10621 12.0615 6.92642L12.1914 6Z" fill="currentColor"></path>
  </symbol>
  <symbol fill="none" xmlns="http://www.w3.org/2000/svg" viewBox="0 0 170 169" id="ic_send">
    <path d="M74.8125 94.6875L120.212 48.8438M74.8125 94.6875L27.7668 59.8152C21.2334 54.674 23.2746 44.373 31.2856 42.0589L166.5 3L137.129 124.424C135.582 131.861 126.659 135.068 120.656 130.344L100.281 115.062M74.8125 94.6875V145.625L100.281 115.062M74.8125 94.6875L100.281 115.062M34.0625 166L54.4375 145.625M3.5 155.812L49.3438 109.969M3.5 115.062L28.9688 89.5938" stroke="currentColor" stroke-width="6" stroke-linecap="round" stroke-linejoin="round"></path>
  </symbol>
  <symbol fill="none" xmlns="http://www.w3.org/2000/svg" viewBox="0 0 14 14" id="ic_share">
    <path d="M12.5 4.33333C12.5 4.60948 12.7239 4.83333 13 4.83333C13.2761 4.83333 13.5 4.60948 13.5 4.33333H12.5ZM9.66667 0.5C9.39052 0.5 9.16667 0.723858 9.16667 1C9.16667 1.27614 9.39052 1.5 9.66667 1.5V0.5ZM6.64645 6.64645C6.45118 6.84171 6.45118 7.15829 6.64645 7.35355C6.84171 7.54882 7.15829 7.54882 7.35355 7.35355L6.64645 6.64645ZM12.9637 1.182L12.5182 1.40899L12.5182 1.409L12.9637 1.182ZM12.818 1.03633L12.591 1.48183V1.48184L12.818 1.03633ZM7 2.83333C7.27614 2.83333 7.5 2.60948 7.5 2.33333C7.5 2.05719 7.27614 1.83333 7 1.83333V2.83333ZM12.1667 7C12.1667 6.72386 11.9428 6.5 11.6667 6.5C11.3905 6.5 11.1667 6.72386 11.1667 7H12.1667ZM2.45603 12.7094L2.68302 12.2638L2.45603 12.7094ZM1.29065 11.544L0.845146 11.771L1.29065 11.544ZM10.2106 12.7094L9.98365 12.2638L10.2106 12.7094ZM11.376 11.544L10.9305 11.317L11.376 11.544ZM1.29065 3.78936L0.845146 3.56236H0.845146L1.29065 3.78936ZM2.45603 2.62398L2.22903 2.17848L2.22903 2.17848L2.45603 2.62398ZM13.5 4.33333V1.53333H12.5V4.33333H13.5ZM12.4667 0.5H9.66667V1.5H12.4667V0.5ZM12.5488 0.744078L6.64645 6.64645L7.35355 7.35355L13.2559 1.45118L12.5488 0.744078ZM13.5 1.53333C13.5 1.44824 13.5004 1.35435 13.4938 1.27368C13.4867 1.18718 13.4692 1.07289 13.4092 0.955008L12.5182 1.409C12.4944 1.36242 12.4951 1.33045 12.4971 1.35512C12.4981 1.36715 12.499 1.38617 12.4995 1.41757C12.5 1.44895 12.5 1.48552 12.5 1.53333H13.5ZM12.4667 1.5C12.5145 1.5 12.5511 1.50001 12.5824 1.50051C12.6138 1.501 12.6329 1.5019 12.6449 1.50288C12.6695 1.5049 12.6376 1.50557 12.591 1.48183L13.045 0.590827C12.9271 0.530762 12.8128 0.51327 12.7263 0.506202C12.6456 0.499611 12.5518 0.5 12.4667 0.5V1.5ZM13.4092 0.955012C13.3692 0.876609 13.3174 0.80553 13.2559 0.744078L12.5488 1.45118C12.5365 1.4389 12.5262 1.42468 12.5182 1.40899L13.4092 0.955012ZM13.2559 0.744078C13.1945 0.682625 13.1234 0.630774 13.045 0.590827L12.591 1.48184C12.5753 1.47385 12.5611 1.46347 12.5488 1.45118L13.2559 0.744078ZM7.4 12.5H5.26667V13.5H7.4V12.5ZM1.5 8.73333V6.6H0.5V8.73333H1.5ZM5.26667 2.83333H7V1.83333H5.26667V2.83333ZM11.1667 7V8.73333H12.1667V7H11.1667ZM5.26667 12.5C4.51168 12.5 3.97551 12.4996 3.55592 12.4653C3.14217 12.4315 2.886 12.3673 2.68302 12.2638L2.22903 13.1549C2.59648 13.3421 2.9989 13.4232 3.47449 13.462C3.94425 13.5004 4.52818 13.5 5.26667 13.5V12.5ZM0.5 8.73333C0.5 9.47182 0.499611 10.0558 0.537992 10.5255C0.576849 11.0011 0.657921 11.4035 0.845146 11.771L1.73615 11.317C1.63273 11.114 1.56848 10.8578 1.53467 10.4441C1.50039 10.0245 1.5 9.48832 1.5 8.73333H0.5ZM2.68302 12.2638C2.27534 12.0561 1.94388 11.7247 1.73615 11.317L0.845146 11.771C1.14875 12.3668 1.63318 12.8513 2.22903 13.1549L2.68302 12.2638ZM7.4 13.5C8.13849 13.5 8.72242 13.5004 9.19218 13.462C9.66777 13.4232 10.0702 13.3421 10.4376 13.1549L9.98365 12.2638C9.78066 12.3673 9.5245 12.4315 9.11075 12.4653C8.69116 12.4996 8.15499 12.5 7.4 12.5V13.5ZM11.1667 8.73333C11.1667 9.48832 11.1663 10.0245 11.132 10.4441C11.0982 10.8578 11.0339 11.114 10.9305 11.317L11.8215 11.771C12.0087 11.4035 12.0898 11.0011 12.1287 10.5255C12.1671 10.0558 12.1667 9.47182 12.1667 8.73333H11.1667ZM10.4376 13.1549C11.0335 12.8513 11.5179 12.3668 11.8215 11.771L10.9305 11.317C10.7228 11.7247 10.3913 12.0561 9.98365 12.2638L10.4376 13.1549ZM1.5 6.6C1.5 5.84501 1.50039 5.30884 1.53467 4.88925C1.56848 4.4755 1.63273 4.21934 1.73615 4.01635L0.845146 3.56236C0.657921 3.92981 0.576849 4.33223 0.537992 4.80782C0.499611 5.27758 0.5 5.86151 0.5 6.6H1.5ZM5.26667 1.83333C4.52818 1.83333 3.94425 1.83294 3.47449 1.87133C2.9989 1.91018 2.59648 1.99125 2.22903 2.17848L2.68302 3.06949C2.886 2.96606 3.14217 2.90181 3.55592 2.868C3.97551 2.83372 4.51168 2.83333 5.26667 2.83333V1.83333ZM1.73615 4.01635C1.94388 3.60867 2.27534 3.27721 2.68302 3.06949L2.22903 2.17848C1.63318 2.48208 1.14875 2.96652 0.845146 3.56236L1.73615 4.01635Z" fill="currentColor"></path>
  </symbol>
  <symbol fill="none" xmlns="http://www.w3.org/2000/svg" viewBox="0 0 24 24" id="ic_tg">
    <path fill-rule="evenodd" clip-rule="evenodd" d="M12 0C5.37258 0 0 5.37258 0 12C0 18.6274 5.37258 24 12 24C18.6274 24 24 18.6274 24 12C24 5.37258 18.6274 0 12 0ZM15.1018 17.5421L17 7.38968C17 6.71395 16.1241 7.12226 16.1241 7.12226L5.46678 11.5578C5.46678 11.5578 4.96217 11.7407 5.00227 12.0788C5.04185 12.4164 5.45325 12.5717 5.45325 12.5717L8.06745 13.5049L14.8435 8.93947C15.2039 8.70741 15.3966 8.89029 15.0862 9.19749C14.8857 9.39584 10.2984 13.7717 9.70679 14.3353L9.7271 14.3458L14.1067 17.9084C14.8363 18.246 15.1018 17.5421 15.1018 17.5421Z" fill="currentColor"></path>
  </symbol>
  <symbol fill="none" xmlns="http://www.w3.org/2000/svg" viewBox="0 0 17 14" id="ic_tg2">
    <path d="M16.5 0.49595L13.9691 13.4172C13.9691 13.4172 13.615 14.313 12.6422 13.8834L6.8028 9.34918L6.77572 9.33582C7.5645 8.61856 13.681 3.04925 13.9483 2.79681C14.3621 2.40583 14.1052 2.17307 13.6247 2.46841L4.58993 8.27892L1.10433 7.09122C1.10433 7.09122 0.555796 6.89362 0.503026 6.46397C0.449561 6.03361 1.12238 5.80086 1.12238 5.80086L15.3321 0.155604C15.3321 0.155604 16.5 -0.364058 16.5 0.49595Z" fill="currentColor"></path>
  </symbol>
  <symbol fill="none" xmlns="http://www.w3.org/2000/svg" viewBox="0 0 16 16" id="ic_upload">
    <path d="M7.99844 10V0.950684M7.99844 0.950684L10.0984 4.45068M7.99844 0.950684L5.89844 4.45068" stroke="currentColor" stroke-linecap="round" stroke-linejoin="round"></path>
    <path d="M5.2 15.0495H10.8C12.7799 15.0495 13.7698 15.0495 14.3849 14.4344C15 13.8193 15 12.8293 15 10.8495V10.1495C15 8.16958 15 7.17964 14.3849 6.56455C13.847 6.02668 13.0225 5.95916 11.5 5.95068M4.5 5.95068C2.97748 5.95916 2.15294 6.02668 1.61508 6.56454C1 7.17964 1 8.16958 1 10.1495V10.8495C1 12.8293 1 13.8193 1.61508 14.4344C1.82494 14.6442 2.07843 14.7825 2.4 14.8736" stroke="currentColor" stroke-linecap="round"></path>
  </symbol>
  <symbol fill="none" xmlns="http://www.w3.org/2000/svg" viewBox="0 0 11 13" id="ic_video_play">
    <path d="M9.17982 4.77918C10.2987 5.52923 10.2987 7.47078 9.17982 8.22081L2.42387 12.7494C1.3364 13.4784 0 12.5296 0 11.0286V1.97139C0 0.470392 1.3364 -0.478387 2.42386 0.250562L9.17982 4.77918Z" fill="currentColor"></path>
  </symbol>
  <symbol fill="none" xmlns="http://www.w3.org/2000/svg" viewBox="0 0 24 24" id="ic_whatsapp">
    <path fill-rule="evenodd" clip-rule="evenodd" d="M12 0C5.37258 0 0 5.37258 0 12C0 18.6274 5.37258 24 12 24C18.6274 24 24 18.6274 24 12C24 5.37258 18.6274 0 12 0ZM12.3219 5.4C13.9902 5.4 15.5707 6.05625 16.7561 7.2375C17.9415 8.41875 18.5561 9.99375 18.6 11.6125C18.6 15.0688 15.7902 17.8688 12.3219 17.8688C11.2683 17.8688 10.2585 17.6063 9.33659 17.125L6 18L6.87805 14.7625C6.35122 13.8438 6.0439 12.75 6.0439 11.6562C6.0439 8.2 8.85366 5.4 12.3219 5.4ZM14.2976 14.6313C14.6049 14.5875 15.2195 14.2375 15.3512 13.8875C15.4829 13.5375 15.4829 13.2312 15.439 13.1C15.3951 13.0563 15.3073 13.0125 15.1317 12.925L15.1317 12.925C15 12.8375 14.2098 12.4438 14.078 12.4C13.9463 12.3563 13.8146 12.3125 13.7268 12.4875C13.639 12.6625 13.3317 13.0125 13.2439 13.1C13.1561 13.1875 13.0683 13.2313 12.8927 13.1438C12.8661 13.1305 12.8324 13.1152 12.7922 13.097C12.5676 12.9951 12.141 12.8017 11.6195 12.3562C11.1366 11.9187 10.8293 11.4375 10.7415 11.2625C10.6537 11.1312 10.7415 11.0437 10.8293 10.9563C10.8475 10.9381 10.8732 10.905 10.9033 10.8662C10.9459 10.8113 10.9973 10.745 11.0488 10.6937C11.1366 10.6062 11.1805 10.5188 11.2244 10.4313C11.2683 10.3438 11.2683 10.2563 11.2244 10.1687C11.1954 10.1399 11.052 9.78765 10.9198 9.46325C10.8516 9.29569 10.7863 9.13556 10.7415 9.03125C10.6237 8.7575 10.506 8.76341 10.4196 8.76774C10.4094 8.76826 10.3996 8.76875 10.3902 8.76875H10.0829C9.95122 8.76875 9.77561 8.76875 9.6439 8.94375C9.62648 8.9669 9.60444 8.99312 9.57932 9.02301C9.41456 9.21902 9.11707 9.57294 9.11707 10.2562C9.11707 11.0437 9.68781 11.7875 9.77561 11.875C9.77805 11.8786 9.78119 11.8834 9.78504 11.8892C9.91988 12.0929 10.917 13.5995 12.4537 14.2375C12.6985 14.3595 12.9221 14.439 13.1094 14.5056C13.1907 14.5345 13.2652 14.561 13.3317 14.5875C13.6829 14.675 14.0341 14.675 14.2976 14.6313Z" fill="currentColor"></path>
  </symbol>
  <symbol fill="none" xmlns="http://www.w3.org/2000/svg" viewBox="0 0 17 17" id="ic_whatsapp2">
    <path d="M8.10888 0.509253C3.84886 0.710451 0.487114 4.22954 0.500037 8.45991C0.503972 9.74837 0.817564 10.9645 1.37076 12.0391L0.521409 16.1286C0.475464 16.3498 0.676604 16.5435 0.898151 16.4915L4.93805 15.5421C5.97596 16.0549 7.14175 16.3511 8.37556 16.3698C12.7297 16.4357 16.3603 13.0064 16.496 8.68904C16.6415 4.06114 12.7908 0.28808 8.10888 0.509253ZM12.9293 12.8289C11.7462 14.0025 10.1732 14.6488 8.50001 14.6488C7.52031 14.6488 6.58235 14.4307 5.71209 14.0007L5.14949 13.7227L2.67261 14.3048L3.19398 11.7944L2.91681 11.256C2.46503 10.3784 2.23596 9.42936 2.23596 8.43534C2.23596 6.77567 2.88753 5.21537 4.07064 4.04178C5.24319 2.87871 6.84189 2.22189 8.50012 2.22189C10.1733 2.22192 11.7463 2.86822 12.9294 4.04174C14.1125 5.21529 14.7641 6.77559 14.7641 8.43523C14.7641 10.0801 14.1019 11.6659 12.9293 12.8289Z" fill="currentColor"></path>
    <path d="M12.566 10.1947L10.884 9.75535C10.6629 9.6976 10.4248 9.75467 10.2636 9.90403L9.85233 10.2853C9.67889 10.446 9.41572 10.4977 9.18617 10.4132C8.3905 10.1203 6.71675 8.76639 6.28932 8.08919C6.166 7.89384 6.18639 7.64962 6.3378 7.47137L6.69691 7.04872C6.8376 6.88312 6.86729 6.66073 6.77425 6.4693L6.06659 5.01323C5.89709 4.66448 5.40722 4.56295 5.08718 4.80919C4.61775 5.1704 4.06075 5.7193 3.99304 6.3274C3.87366 7.39953 4.37907 8.75104 6.29028 10.3739C8.49824 12.2487 10.2664 12.4963 11.4176 12.2426C12.0705 12.0988 12.5924 11.5219 12.9217 11.0496C13.1462 10.7276 12.9689 10.3 12.566 10.1947Z" fill="currentColor"></path>
  </symbol>
  <symbol fill="none" xmlns="http://www.w3.org/2000/svg" viewBox="0 0 28 28" id="ic_zoom">
    <path d="M12.7 8.8V12.7M12.7 12.7V16.6M12.7 12.7H16.6M12.7 12.7H8.8M27 27L21.15 21.15M24.4 12.7C24.4 19.1617 19.1617 24.4 12.7 24.4C6.23827 24.4 1 19.1617 1 12.7C1 6.23827 6.23827 1 12.7 1C19.1617 1 24.4 6.23827 24.4 12.7Z" stroke="currentColor" stroke-width="1.2" stroke-linecap="round"></path>
  </symbol>
</svg>